<svg width="25" height="20" viewBox="0 0 25 20" fill="none" xmlns="http://www.w3.org/2000/svg">
<path id="Bot" d="M12.75 3.68303V4.68303H13.75H18.125C19.3163 4.68303 20.25 5.6257 20.25 6.75223V17.1875C20.25 17.9726 19.5937 18.6429 18.75 18.6429H6.25C5.40631 18.6429 4.75 17.9726 4.75 17.1875V6.75223C4.75 5.6257 5.68366 4.68303 6.875 4.68303H11.25H12.25V3.68303V1.22768C12.25 1.11781 12.3438 1 12.5 1C12.6562 1 12.75 1.11781 12.75 1.22768V3.68303ZM10 16.9598H10.25H11H11.25H13.75H14H14.75H15H17.5H18.5V15.9598V14.7321V13.7321H17.5H15H14.75H14H13.75H11.25H11H10.25H10H7.5H6.5V14.7321V15.9598V16.9598H7.5H10ZM1 14.7321V9.82143C1 9.71156 1.09381 9.59375 1.25 9.59375H1.5V14.9598H1.25C1.09381 14.9598 1 14.842 1 14.7321ZM6.1875 9.82143C6.1875 11.2385 7.3515 12.356 8.75 12.356C10.1485 12.356 11.3125 11.2385 11.3125 9.82143C11.3125 8.40437 10.1485 7.28683 8.75 7.28683C7.3515 7.28683 6.1875 8.40437 6.1875 9.82143ZM13.6875 9.82143C13.6875 11.2385 14.8515 12.356 16.25 12.356C17.6485 12.356 18.8125 11.2385 18.8125 9.82143C18.8125 8.40437 17.6485 7.28683 16.25 7.28683C14.8515 7.28683 13.6875 8.40437 13.6875 9.82143ZM23.5 14.9598V9.59375H23.75C23.9062 9.59375 24 9.71156 24 9.82143V14.7321C24 14.842 23.9062 14.9598 23.75 14.9598H23.5Z" stroke="#949BE2" stroke-width="2"/>
</svg>
