<svg width="20" height="20" viewBox="0 0 20 20" fill="none" xmlns="http://www.w3.org/2000/svg">
<path id="Vector" d="M19.9995 11.2852C19.9808 11.966 19.4051 12.5 18.724 12.5H16.5625V13.125C16.5625 13.9791 16.3718 14.7884 16.0312 15.5135L18.3839 17.8661C18.872 18.3543 18.872 19.1457 18.3839 19.6339C17.8957 20.1221 17.1042 20.122 16.6161 19.6339L14.478 17.4958C13.5112 18.2799 12.2793 18.75 10.9375 18.75V9.21875C10.9375 8.95988 10.7276 8.75 10.4687 8.75H9.53123C9.27236 8.75 9.06248 8.95988 9.06248 9.21875V18.75C7.72064 18.75 6.48881 18.2799 5.52201 17.4958L3.38388 19.6339C2.89568 20.1221 2.10424 20.122 1.61607 19.6339C1.12795 19.1457 1.12795 18.3543 1.61607 17.8661L3.96873 15.5135C3.62818 14.7884 3.43748 13.9791 3.43748 13.125V12.5H1.27599C0.594899 12.5 0.0191561 11.966 0.000484218 11.2852C-0.0189299 10.5788 0.547945 10 1.24998 10H3.43748V7.70528L1.61607 5.88387C1.12795 5.3957 1.12795 4.60426 1.61607 4.11609C2.10427 3.62793 2.89568 3.62793 3.38388 4.11609L5.51775 6.25H14.4822L16.616 4.11613C17.1042 3.62797 17.8956 3.62797 18.3839 4.11613C18.872 4.6043 18.872 5.39574 18.3839 5.88391L16.5625 7.70528V10H18.75C19.452 10 20.0189 10.5788 19.9995 11.2852ZM10.039 0C7.62279 0 5.66404 1.95875 5.66404 4.375H14.414C14.414 1.95875 12.4553 0 10.039 0Z" fill="#D7B252"/>
</svg>
