<svg width="40" height="39" viewBox="0 0 40 39" fill="none" xmlns="http://www.w3.org/2000/svg">
<path id="Github Icon" d="M17.719 0.138431C8.51896 1.13843 1.11896 8.53843 0.118963 17.5384C-0.881037 26.9384 4.51896 35.3384 12.719 38.5384C13.319 38.7384 13.919 38.3384 13.919 37.5384V34.3384C13.919 34.3384 13.119 34.5384 12.119 34.5384C9.31896 34.5384 8.11896 32.1384 7.91896 30.7384C7.71896 29.9384 7.31896 29.3384 6.71896 28.7384C6.11896 28.5384 5.91896 28.5384 5.91896 28.3384C5.91896 27.9384 6.51896 27.9384 6.71896 27.9384C7.91896 27.9384 8.91896 29.3384 9.31896 29.9384C10.319 31.5384 11.519 31.9384 12.119 31.9384C12.919 31.9384 13.519 31.7384 13.919 31.5384C14.119 30.1384 14.719 28.7384 15.919 27.9384C11.319 26.9384 7.91896 24.3384 7.91896 19.9384C7.91896 17.7384 8.91896 15.5384 10.319 13.9384C10.119 13.5384 9.91896 12.5384 9.91896 11.1384C9.91896 10.3384 9.91896 9.33843 10.319 8.53843C10.319 8.13843 10.719 7.93843 10.919 7.93843H11.119C12.119 8.13843 14.119 8.73843 15.919 10.5384C17.119 10.1384 18.519 9.93843 19.919 9.93843C21.319 9.93843 22.719 10.1384 23.919 10.5384C25.719 8.73843 27.919 8.13843 28.919 7.93843H29.119C29.519 7.93843 29.719 8.13843 29.919 8.53843C29.919 9.33843 29.919 10.3384 29.919 11.1384C29.919 12.7384 29.719 13.5384 29.519 13.9384C30.919 15.5384 31.919 17.5384 31.919 19.9384C31.919 24.3384 28.519 26.9384 23.919 27.9384C25.119 28.9384 25.919 30.7384 25.919 32.5384V37.7384C25.919 38.3384 26.519 38.9384 27.319 38.7384C34.719 35.7384 39.919 28.5384 39.919 20.1384C39.919 8.13843 29.719 -1.26157 17.719 0.138431Z" fill="white"/>
</svg>
