<svg width="26" height="26" viewBox="0 0 26 26" fill="none" xmlns="http://www.w3.org/2000/svg">
<path id="Vector" d="M24.0001 14.8333H14.8334V24C14.8334 25.0083 14.0084 25.8333 13.0001 25.8333C11.9917 25.8333 11.1667 25.0083 11.1667 24V14.8333H2.00008C0.991748 14.8333 0.166748 14.0083 0.166748 13C0.166748 11.9916 0.991748 11.1666 2.00008 11.1666H11.1667V1.99996C11.1667 0.991626 11.9917 0.166626 13.0001 0.166626C14.0084 0.166626 14.8334 0.991626 14.8334 1.99996V11.1666H24.0001C25.0084 11.1666 25.8334 11.9916 25.8334 13C25.8334 14.0083 25.0084 14.8333 24.0001 14.8333Z" fill="#171717"/>
</svg>
