<svg width="20" height="19" viewBox="0 0 20 19" fill="none" xmlns="http://www.w3.org/2000/svg">
<path id="Vector" d="M19.728 15.7877L15.8332 12.2322C15.6574 12.0717 15.4191 11.9825 15.1691 11.9825H14.5323C15.6105 10.7236 16.2512 9.14024 16.2512 7.41775C16.2512 3.32016 12.6142 0 8.12559 0C3.63698 0 0 3.32016 0 7.41775C0 11.5153 3.63698 14.8355 8.12559 14.8355C10.0125 14.8355 11.747 14.2506 13.126 13.2664V13.8477C13.126 14.0759 13.2236 14.2934 13.3994 14.4539L17.2942 18.0094C17.6614 18.3447 18.2552 18.3447 18.6185 18.0094L19.7241 17.0002C20.0913 16.665 20.0913 16.1229 19.728 15.7877ZM8.12559 11.9825C5.36367 11.9825 3.12523 9.94264 3.12523 7.41775C3.12523 4.89643 5.35977 2.85298 8.12559 2.85298C10.8875 2.85298 13.126 4.89286 13.126 7.41775C13.126 9.93908 10.8914 11.9825 8.12559 11.9825Z" fill="#F2F2F2" fill-opacity="0.2"/>
</svg>
